<svg
    width="272"
    height="272"
    viewBox="0 0 272 272"
    fill="none"
    xmlns="http://www.w3.org/2000/svg"
>
<defs id="defs1">
    <style id="current-color-scheme" type="text/css">
.ColorScheme-Text {
    color: #ffffff;
}
        </style>
</defs>
<rect
        x="4"
        y="4"
        width="264"
        height="264"
        rx="132"
        stroke="currentColor"
        stroke-width="8"
        class="ColorScheme-Text"
    />
<path
        fill-rule="evenodd"
        clip-rule="evenodd"
        d="M204.39 190.682C213.927 180.707 209.193 160.408 193.817 145.342C179.281 131.1 156.846 126.992 146.505 135C146.048 135.354 146.287 136.06 146.858 136.125C157.181 137.304 167.214 143.278 173.843 153.346C182.239 166.098 182.891 181.949 176.741 194.151C176.552 194.525 176.737 194.985 177.137 195.099C186.659 197.803 199.039 196.278 204.39 190.682Z"
        fill="currentColor"
        class="ColorScheme-Text"
    />
<path
        fill-rule="evenodd"
        clip-rule="evenodd"
        d="M109.224 221.647C121.66 227.212 138.924 215.575 147.783 195.654C156.159 176.82 152.493 154.034 141.61 147.015C141.127 146.703 140.552 147.161 140.681 147.722C143.038 157.962 140.839 169.616 133.698 179.468C124.659 191.939 110.16 198.13 96.7838 196.567C96.3735 196.519 96.0126 196.845 96.0397 197.258C96.6976 207.27 102.241 218.522 109.224 221.647Z"
        fill="currentColor"
        class="ColorScheme-Text"
    />
<path
        fill-rule="evenodd"
        clip-rule="evenodd"
        d="M48.006 141.38C46.9764 155.161 63.5304 167.48 84.9802 168.895C105.257 170.233 125.197 158.736 128.098 145.923C128.226 145.357 127.591 144.978 127.108 145.301C118.385 151.13 106.841 153.131 95.3248 149.811C80.7364 145.605 70.1617 134.002 67.1597 120.738C67.0676 120.331 66.6309 120.103 66.2491 120.277C57.1766 124.429 48.5836 133.649 48.006 141.38Z"
        fill="currentColor"
        class="ColorScheme-Text"
    />
<path
        fill-rule="evenodd"
        clip-rule="evenodd"
        d="M108.409 53.9788C94.9968 56.6706 87.3375 76.1614 91.302 97.5127C95.0501 117.699 110.971 134.109 123.924 133.504C124.499 133.477 124.711 132.766 124.285 132.383C116.549 125.42 111.77 114.664 112.087 102.505C112.487 87.1114 120.946 73.6574 132.869 67.1634C133.234 66.9642 133.347 66.4855 133.089 66.1636C126.879 58.4017 115.938 52.4678 108.409 53.9788Z"
        fill="currentColor"
        class="ColorScheme-Text"
    />
<path
        fill-rule="evenodd"
        clip-rule="evenodd"
        d="M204.629 83.4914C197.666 71.6835 177.033 71.2774 158.544 82.5843C141.064 93.2739 131.139 114.21 136.013 126.317C136.229 126.853 136.961 126.802 137.175 126.261C141.06 116.447 149.448 108.106 160.832 104.116C175.247 99.0646 190.545 102.362 200.539 111.41C200.846 111.687 201.329 111.624 201.542 111.265C206.675 102.618 208.537 90.1188 204.629 83.4914Z"
        fill="currentColor"
        class="ColorScheme-Text"
    />
</svg>
