<svg width="16" height="16" viewBox="0 0 16 16" fill="none" xmlns="http://www.w3.org/2000/svg">
<rect x="0.5" y="0.5" width="15" height="15" rx="2.5" fill="#F1F1F3" fill-opacity="0.6"/>
<rect x="0.5" y="0.5" width="15" height="15" rx="2.5" stroke="#D8D8DD"/>
<path d="M4.4 9.8C4.16131 9.8 3.93239 9.70518 3.7636 9.5364C3.59482 9.36761 3.5 9.13869 3.5 8.9V4.4C3.5 4.16131 3.59482 3.93239 3.7636 3.7636C3.93239 3.59482 4.16131 3.5 4.4 3.5H8.9C9.13869 3.5 9.36761 3.59482 9.5364 3.7636C9.70518 3.93239 9.8 4.16131 9.8 4.4V5.75C9.8 5.86935 9.84741 5.98381 9.9318 6.0682C10.0162 6.15259 10.1307 6.2 10.25 6.2H11.6C11.8387 6.2 12.0676 6.29482 12.2364 6.4636C12.4052 6.63239 12.5 6.86131 12.5 7.1V11.6C12.5 11.8387 12.4052 12.0676 12.2364 12.2364C12.0676 12.4052 11.8387 12.5 11.6 12.5H7.1C6.86131 12.5 6.63239 12.4052 6.4636 12.2364C6.29482 12.0676 6.2 11.8387 6.2 11.6V10.25C6.2 10.1307 6.15259 10.0162 6.0682 9.9318C5.98381 9.84741 5.86935 9.8 5.75 9.8H4.4Z" stroke="#0C0C12" stroke-width="1.5" stroke-linecap="round" stroke-linejoin="round"/>
</svg>
