<svg width="256" height="256" viewBox="0 0 256 256" fill="none" xmlns="http://www.w3.org/2000/svg">
<rect x="0.5" y="0.5" width="255" height="255" rx="127.5" fill="url(#paint0_radial_151_291)"/>
<rect x="0.5" y="0.5" width="255" height="255" rx="127.5" stroke="#6798FF"/>
<g filter="url(#filter0_di_151_291)">
<path fill-rule="evenodd" clip-rule="evenodd" d="M196.39 183.706C205.927 173.732 201.193 153.433 185.817 138.367C171.281 124.124 148.847 120.017 138.505 128.025C138.048 128.378 138.287 129.085 138.858 129.15C149.181 130.329 159.214 136.303 165.843 146.37C174.239 159.122 174.891 174.974 168.741 187.175C168.552 187.55 168.737 188.01 169.137 188.123C178.659 190.827 191.039 189.302 196.39 183.706Z" fill="#E8EFFC"/>
<path fill-rule="evenodd" clip-rule="evenodd" d="M101.224 214.671C113.66 220.236 130.924 208.599 139.783 188.678C148.159 169.844 144.493 147.058 133.61 140.039C133.127 139.727 132.552 140.185 132.681 140.747C135.038 150.986 132.839 162.64 125.698 172.492C116.658 184.963 102.16 191.155 88.7837 189.591C88.3735 189.543 88.0125 189.87 88.0396 190.282C88.6975 200.295 94.2414 211.547 101.224 214.671Z" fill="#E8EFFC"/>
<path fill-rule="evenodd" clip-rule="evenodd" d="M40.006 134.405C38.9764 148.186 55.5304 160.504 76.9802 161.919C97.2575 163.257 117.197 151.76 120.098 138.947C120.226 138.382 119.591 138.002 119.108 138.325C110.385 144.154 98.8406 146.156 87.3248 142.835C72.7364 138.629 62.1617 127.027 59.1597 113.763C59.0676 113.356 58.6309 113.127 58.2491 113.302C49.1766 117.453 40.5836 126.674 40.006 134.405Z" fill="#E8EFFC"/>
<path fill-rule="evenodd" clip-rule="evenodd" d="M100.409 47.003C86.9968 49.6949 79.3375 69.1857 83.302 90.537C87.0501 110.723 102.971 127.134 115.924 126.528C116.499 126.501 116.711 125.791 116.285 125.408C108.549 118.444 103.77 107.688 104.087 95.5292C104.487 80.1357 112.946 66.6817 124.869 60.1877C125.234 59.9885 125.347 59.5098 125.089 59.1879C118.879 51.426 107.938 45.492 100.409 47.003Z" fill="#E8EFFC"/>
<path fill-rule="evenodd" clip-rule="evenodd" d="M196.629 76.5159C189.666 64.7079 169.033 64.3018 150.544 75.6087C133.064 86.2983 123.139 107.234 128.013 119.341C128.229 119.878 128.961 119.826 129.175 119.286C133.06 109.471 141.448 101.131 152.832 97.1409C167.247 92.089 182.545 95.3864 192.539 104.434C192.846 104.712 193.329 104.649 193.542 104.289C198.675 95.6423 200.537 83.1432 196.629 76.5159Z" fill="#E8EFFC"/>
</g>
<defs>
<filter id="filter0_di_151_291" x="31.9604" y="39.7668" width="177.354" height="192.295" filterUnits="userSpaceOnUse" color-interpolation-filters="sRGB">
<feFlood flood-opacity="0" result="BackgroundImageFix"/>
<feColorMatrix in="SourceAlpha" type="matrix" values="0 0 0 0 0 0 0 0 0 0 0 0 0 0 0 0 0 0 127 0" result="hardAlpha"/>
<feOffset dy="8"/>
<feGaussianBlur stdDeviation="4"/>
<feComposite in2="hardAlpha" operator="out"/>
<feColorMatrix type="matrix" values="0 0 0 0 0 0 0 0 0 0 0 0 0 0 0 0 0 0 0.25 0"/>
<feBlend mode="normal" in2="BackgroundImageFix" result="effect1_dropShadow_151_291"/>
<feBlend mode="normal" in="SourceGraphic" in2="effect1_dropShadow_151_291" result="shape"/>
<feColorMatrix in="SourceAlpha" type="matrix" values="0 0 0 0 0 0 0 0 0 0 0 0 0 0 0 0 0 0 127 0" result="hardAlpha"/>
<feOffset dy="-9"/>
<feGaussianBlur stdDeviation="3.5"/>
<feComposite in2="hardAlpha" operator="arithmetic" k2="-1" k3="1"/>
<feColorMatrix type="matrix" values="0 0 0 0 0.202885 0 0 0 0 0.243522 0 0 0 0 1 0 0 0 0.49 0"/>
<feBlend mode="normal" in2="shape" result="effect2_innerShadow_151_291"/>
</filter>
<radialGradient id="paint0_radial_151_291" cx="0" cy="0" r="1" gradientUnits="userSpaceOnUse" gradientTransform="translate(128 128) rotate(90) scale(128)">
<stop stop-color="#000DFF"/>
<stop offset="0.360577" stop-color="#000DFF"/>
<stop offset="1" stop-color="#1451FF"/>
</radialGradient>
</defs>
</svg>
