<?xml version="1.0" encoding="UTF-8" standalone="no"?>
<!-- Created with Inkscape (http://www.inkscape.org/) -->

<svg
   width="256"
   height="256"
   viewBox="0 0 67.733332 67.733333"
   version="1.1"
   id="svg1"
   xml:space="preserve"
   inkscape:version="1.4.4 (dcaf3e7d9e, 2026-05-05)"
   sodipodi:docname="recycling.svg"
   xmlns:inkscape="http://www.inkscape.org/namespaces/inkscape"
   xmlns:sodipodi="http://sodipodi.sourceforge.net/DTD/sodipodi-0.dtd"
   xmlns="http://www.w3.org/2000/svg"
   xmlns:svg="http://www.w3.org/2000/svg"><sodipodi:namedview
     id="namedview1"
     pagecolor="#ffffff"
     bordercolor="#000000"
     borderopacity="0.25"
     inkscape:showpageshadow="2"
     inkscape:pageopacity="0.0"
     inkscape:pagecheckerboard="0"
     inkscape:deskcolor="#d1d1d1"
     inkscape:document-units="mm"
     inkscape:zoom="2"
     inkscape:cx="130.25"
     inkscape:cy="144.25"
     inkscape:window-width="1920"
     inkscape:window-height="996"
     inkscape:window-x="0"
     inkscape:window-y="0"
     inkscape:window-maximized="1"
     inkscape:current-layer="layer1" /><defs
     id="defs1" /><g
     inkscape:label="Ebene 1"
     inkscape:groupmode="layer"
     id="layer1"><path
       style="fill:#44aa00"
       d="m 38.273504,60.145619 -3.90399,-6.15287 3.7717,-6.65401 3.77169,-6.654 0.22499,2.37121 0.22499,2.37122 5.27143,-0.16319 c 4.98193,-0.15423 5.29249,-0.13546 5.65502,0.34176 0.84299,1.10969 2.5047,4.57985 2.93608,6.13142 0.40048,1.44044 0.41598,1.87698 0.12454,3.50776 -0.39534,2.21217 -1.54606,4.09394 -2.92767,4.78762 -0.63326,0.31794 -2.0972,0.55431 -4.63021,0.74761 -2.03729,0.15546 -4.20172,0.34751 -4.80983,0.42677 l -1.10567,0.1441 -0.18568,2.37362 c -0.10213,1.30548 -0.25942,2.41866 -0.34954,2.47373 -0.0901,0.0551 -1.92066,-2.66867 -4.06785,-6.05275 z m -24.252611,0.22917 c -1.780103,-0.4786 -3.023144,-1.23169 -3.824007,-2.31677 -0.4703745,-0.63731 -6.4253655,-11.51159 -8.6128695,-15.72778 -0.269419,-0.51928 -0.125583,-0.47 1.010459,0.34616 0.728527,0.5234 2.015082,1.21158 2.859012,1.5293 1.469922,0.55339 1.987612,0.58122 12.3161895,0.66217 l 10.781767,0.0845 v 7.92135 7.92136 l -6.54843,-0.0174 c -4.855885,-0.0129 -6.919,-0.11704 -7.982121,-0.40287 z m 44.242131,-7.04978 c -9e-4,-1.72173 -0.14257,-2.5367 -0.66572,-3.8293 -0.36552,-0.90314 -3.0154,-5.46397 -5.88862,-10.13517 -2.87322,-4.67121 -5.18112,-8.53073 -5.12866,-8.57671 0.0874,-0.0766 12.40033,-7.75753 13.10062,-8.17227 0.44841,-0.26558 6.64538,9.81875 7.44652,12.11771 1.10943,3.18366 1.04632,3.37358 -4.19079,12.61144 -2.50391,4.41673 -4.57949,8.06216 -4.61239,8.10096 -0.0329,0.0388 -0.0603,-0.91369 -0.061,-2.11666 z M 6.3328625,42.379259 c -2.782253,-0.74766 -4.833721,-2.42757 -5.89537499,-4.82761 -0.799609,-1.80765 -0.540422,-2.82457 1.89316399,-7.42787 1.186512,-2.24436 2.124474,-4.16727 2.084358,-4.27313 -0.04012,-0.10586 -0.96561,-0.88893 -2.056655,-1.74017 l -1.98371799,-1.54769 7.39017599,-0.0704 c 4.0645975,-0.0387 7.4752515,0.0208 7.5792315,0.13229 0.223131,0.23925 7.12199,13.02015 7.12199,13.19428 0,0.0654 -0.90498,-0.3777 -2.01107,-0.98476 -1.627696,-0.89333 -2.056197,-1.03334 -2.247776,-0.73444 -0.130186,0.20311 -1.383222,2.24453 -2.784524,4.53648 l -2.547821,4.16719 -2.546593,-0.0174 c -1.4006275,-0.01 -3.1985515,-0.19261 -3.9953875,-0.40674 z M 17.968115,20.172599 c -4.168312,-2.34488 -6.714274,-3.92798 -6.661573,-4.14222 0.141308,-0.57443 4.829511,-8.9677797 5.900553,-10.5638397 1.151806,-1.71641 2.305658,-2.76116 3.803729,-3.44406 0.90118,-0.41081 1.78871,-0.48331 5.97701,-0.48825 2.70528,-0.003 6.89759,0.0722 9.31626,0.16762 l 4.39758,0.17344 -1.31843,0.61083 c -2.7871,1.29129 -3.68226,2.48916 -9.25828,12.3891797 -2.82996,5.0245 -5.20492,9.12585 -5.27768,9.1141 -0.0728,-0.0118 -3.16839,-1.72931 -6.879169,-3.8168 z m 23.984419,3.12355 -6.31037,-0.0816 2.00105,-1.3063 2.00105,-1.3063 -2.65269,-4.67441 -2.6527,-4.67441 1.27347,-2.1313597 c 2.50199,-4.18745 5.17391,-6.05713 8.63256,-6.04063 2.90538,0.0139 2.92569,0.0344 8.7805,8.8804197 0.22804,0.34454 0.60268,0.2569 2.71228,-0.63445 l 2.4477,-1.03419 -1.3814,2.56306 c -0.75976,1.40968 -2.35781,4.349 -3.55122,6.53181 l -2.16983,3.96875 -1.41001,0.0106 c -0.77551,0.006 -4.24968,-0.0261 -7.72039,-0.071 z"
       id="path1" /></g></svg>
