<svg width="64" height="64" viewBox="0 0 64 64" fill="none" xmlns="http://www.w3.org/2000/svg">
<g filter="url(#filter0_n_460_197)">
<path d="M0.529977 11.2511C0.542385 8.08489 3.05507 5.52157 6.15785 5.50981L15.8334 5.5L16.9525 5.50655C18.4446 5.51528 19.8861 6.05879 21.0253 7.04209L21.1597 7.15806C21.3552 7.3268 21.5357 7.51277 21.6993 7.71381C22.5288 8.73343 23.3541 9.33799 24.6527 9.33799H54.5384C57.83 9.34021 60.4958 12.0666 60.4907 15.4256L60.4854 18.8828C60.4854 18.8882 60.4882 18.8932 60.4927 18.8959C60.4972 18.8987 60.5 18.9036 60.5 18.909L60.489 25.3542C60.487 26.5399 59.5445 27.5 58.3826 27.5H1.61082C1.01857 27.5 0.538833 27.0094 0.540158 26.405L0.540995 26.0233L0.5 23.07V18.9003L0.529977 11.2511Z" fill="#3E78FF"/>
<path d="M0.529977 11.2511C0.542385 8.08489 3.05507 5.52157 6.15785 5.50981L15.8334 5.5L16.9525 5.50655C18.4446 5.51528 19.8861 6.05879 21.0253 7.04209L21.1597 7.15806C21.3552 7.3268 21.5357 7.51277 21.6993 7.71381C22.5288 8.73343 23.3541 9.33799 24.6527 9.33799H54.5384C57.83 9.34021 60.4958 12.0666 60.4907 15.4256L60.4854 18.8828C60.4854 18.8882 60.4882 18.8932 60.4927 18.8959C60.4972 18.8987 60.5 18.9036 60.5 18.909L60.489 25.3542C60.487 26.5399 59.5445 27.5 58.3826 27.5H1.61082C1.01857 27.5 0.538833 27.0094 0.540158 26.405L0.540995 26.0233L0.5 23.07V18.9003L0.529977 11.2511Z" fill="black" fill-opacity="0.2"/>
<path d="M16.9502 5.88184C18.3522 5.89004 19.708 6.40062 20.7803 7.32617L20.915 7.44238C21.0936 7.59654 21.2587 7.7664 21.4082 7.9502C21.8365 8.47668 22.2832 8.92095 22.8096 9.23145C23.3424 9.54567 23.9396 9.71283 24.6523 9.71289H54.5381C57.6153 9.71497 60.12 12.266 60.1152 15.4248L60.1104 18.8818C60.1103 18.9169 60.1149 18.952 60.124 18.9854L60.1143 25.3535C60.1126 26.3394 59.3307 27.1249 58.3828 27.125H1.61035C1.23301 27.1247 0.914381 26.81 0.915039 26.4062L0.916016 26.0244V26.0186L0.875 23.0645V18.9014L0.905273 11.2529C0.916902 8.28562 3.26946 5.89576 6.15918 5.88477L6.1582 5.88379L15.8311 5.875L16.9502 5.88184Z" stroke="black" stroke-opacity="0.07" stroke-width="0.75"/>
</g>
<path d="M4.5 17.3259C4.5 15.4891 6.25979 14 8.4306 14H52.5694C54.7402 14 56.5 15.4891 56.5 17.3259V54.6741C56.5 56.511 54.7402 58 52.5694 58H8.4306C6.25979 58 4.5 56.5109 4.5 54.6741V17.3259Z" fill="#D9D9D9"/>
<path d="M8.43066 14.375H52.5693C54.5942 14.375 56.125 15.7527 56.125 17.3262V54.6738C56.125 56.2473 54.5942 57.625 52.5693 57.625H8.43066C6.4058 57.625 4.875 56.2473 4.875 54.6738V17.3262C4.875 15.8019 6.31152 14.4612 8.24219 14.3789L8.43066 14.375Z" stroke="black" stroke-opacity="0.07" stroke-width="0.75"/>
<path d="M0.5 24.8823C0.5 21.9097 3.01877 19.5 6.12583 19.5H57.8742C60.9812 19.5 63.5 21.9097 63.5 24.8823V53.1177C63.5 56.0903 60.9812 58.5 57.8742 58.5H6.12583C3.01877 58.5 0.5 56.0903 0.5 53.1177V24.8823Z" fill="#3E78FF"/>
<path d="M0.5 24.8823C0.5 21.9097 3.01877 19.5 6.12583 19.5H57.8742C60.9812 19.5 63.5 21.9097 63.5 24.8823V53.1177C63.5 56.0903 60.9812 58.5 57.8742 58.5H6.12583C3.01877 58.5 0.5 56.0903 0.5 53.1177V24.8823Z" fill="url(#paint0_linear_460_197)"/>
<defs>
<filter id="filter0_n_460_197" x="0.5" y="5.5" width="60" height="22" filterUnits="userSpaceOnUse" color-interpolation-filters="sRGB">
<feFlood flood-opacity="0" result="BackgroundImageFix"/>
<feBlend mode="normal" in="SourceGraphic" in2="BackgroundImageFix" result="shape"/>
<feTurbulence type="fractalNoise" baseFrequency="1 1" stitchTiles="stitch" numOctaves="3" result="noise" seed="5353" />
<feColorMatrix in="noise" type="luminanceToAlpha" result="alphaNoise" />
<feComponentTransfer in="alphaNoise" result="coloredNoise1">
<feFuncA type="discrete" tableValues="1 1 1 1 1 1 1 1 1 1 1 1 1 1 1 1 1 1 1 1 1 1 1 1 1 1 1 1 1 1 1 1 1 1 1 1 1 1 1 1 1 1 1 1 1 1 1 1 1 1 1 0 0 0 0 0 0 0 0 0 0 0 0 0 0 0 0 0 0 0 0 0 0 0 0 0 0 0 0 0 0 0 0 0 0 0 0 0 0 0 0 0 0 0 0 0 0 0 0 0 "/>
</feComponentTransfer>
<feComposite operator="in" in2="shape" in="coloredNoise1" result="noise1Clipped" />
<feFlood flood-color="rgba(0, 0, 0, 0.07)" result="color1Flood" />
<feComposite operator="in" in2="noise1Clipped" in="color1Flood" result="color1" />
<feMerge result="effect1_noise_460_197">
<feMergeNode in="shape" />
<feMergeNode in="color1" />
</feMerge>
</filter>
<linearGradient id="paint0_linear_460_197" x1="32" y1="19.5" x2="32" y2="58.5" gradientUnits="userSpaceOnUse">
<stop stop-color="white" stop-opacity="0"/>
<stop offset="0.850962" stop-color="#3A3A3A" stop-opacity="0.154808"/>
<stop offset="1" stop-opacity="0.2"/>
</linearGradient>
</defs>
</svg>
