<?xml version="1.0" encoding="UTF-8" standalone="no"?>
<svg
   width="20"
   height="20"
   viewBox="0 0 256 256"
   fill="none"
   version="1.1"
   id="svg1"
   sodipodi:docname="left_side.svg"
   inkscape:version="1.4.4 (dcaf3e7d9e, 2026-05-05)"
   xmlns:inkscape="http://www.inkscape.org/namespaces/inkscape"
   xmlns:sodipodi="http://sodipodi.sourceforge.net/DTD/sodipodi-0.dtd"
   xmlns="http://www.w3.org/2000/svg"
   xmlns:svg="http://www.w3.org/2000/svg">
  <defs
     id="defs1" />
  <sodipodi:namedview
     id="namedview1"
     pagecolor="#ffffff"
     bordercolor="#000000"
     borderopacity="0.25"
     inkscape:showpageshadow="2"
     inkscape:pageopacity="0.0"
     inkscape:pagecheckerboard="0"
     inkscape:deskcolor="#d1d1d1"
     inkscape:zoom="3.0742188"
     inkscape:cx="128"
     inkscape:cy="128"
     inkscape:window-width="1920"
     inkscape:window-height="996"
     inkscape:window-x="0"
     inkscape:window-y="0"
     inkscape:window-maximized="1"
     inkscape:current-layer="svg1" />
  <path
     d="M180.418 25.4803L180.205 25.6655L180.005 25.8644L84.4606 120.908C84.4605 120.908 84.4604 120.908 84.4603 120.908C80.0492 125.296 81.0829 130.819 82.0541 133.443C83.0829 136.222 84.8734 138.565 86.4659 140.152L86.4714 140.157L176.067 229.283L176.072 229.287C182.89 236.06 194.069 235.562 200.25 228.192L200.465 227.936L200.659 227.664C221.913 197.849 232.555 160.832 232.596 125.105C232.637 89.5169 222.144 54.4805 200.203 28.8801C199.109 27.4686 197.166 25.5408 194.669 24.19C191.755 22.613 185.755 20.8324 180.418 25.4803ZM55.4998 55.3904C55.4998 46.2777 48.1124 38.8904 38.9998 38.8904C29.887 38.8904 22.4998 46.2777 22.4998 55.3904V202.39C22.4998 211.503 29.8871 218.89 38.9998 218.89C48.1124 218.89 55.4998 211.503 55.4998 202.39V55.3904Z"
     fill="#00FF00"
     stroke="#0000FF"
     stroke-width="17"
     id="path1"
     style="fill:#000000;fill-opacity:1;stroke:#ffffff;stroke-opacity:1" />
</svg>
