<?xml version="1.0" encoding="UTF-8" standalone="no"?>
<svg
   width="20"
   height="20"
   viewBox="0 0 256 256"
   fill="none"
   version="1.1"
   id="svg5"
   sodipodi:docname="top_left_corner.svg"
   inkscape:version="1.4.4 (dcaf3e7d9e, 2026-05-05)"
   xmlns:inkscape="http://www.inkscape.org/namespaces/inkscape"
   xmlns:sodipodi="http://sodipodi.sourceforge.net/DTD/sodipodi-0.dtd"
   xmlns="http://www.w3.org/2000/svg"
   xmlns:svg="http://www.w3.org/2000/svg">
  <sodipodi:namedview
     id="namedview5"
     pagecolor="#ffffff"
     bordercolor="#000000"
     borderopacity="0.25"
     inkscape:showpageshadow="2"
     inkscape:pageopacity="0.0"
     inkscape:pagecheckerboard="0"
     inkscape:deskcolor="#d1d1d1"
     inkscape:zoom="3.0742188"
     inkscape:cx="128"
     inkscape:cy="128"
     inkscape:window-width="1920"
     inkscape:window-height="996"
     inkscape:window-x="0"
     inkscape:window-y="0"
     inkscape:window-maximized="1"
     inkscape:current-layer="g3" />
  <path
     d="M218.026 67.8397H218.021H81.2955C81.2952 67.8397 81.295 67.8397 81.2947 67.8397C79.1331 67.8396 76.3911 68.2308 73.9394 69.372C71.5908 70.4653 67.84 73.1681 67.84 78.2536V225.085C67.84 226.83 68.1899 228.835 69.3833 230.693C70.6049 232.594 72.3008 233.704 73.8569 234.34C76.3518 235.36 79.3855 235.45 81.3608 235.509C81.4456 235.512 81.5285 235.514 81.6092 235.517L81.9562 235.527L82.3023 235.501C117.984 232.727 152.378 214.089 179.346 186.867C206.337 159.623 226.294 123.391 232.835 84.686L232.877 84.44L232.899 84.1915C233.683 75.4604 226.852 67.847 218.026 67.8397Z"
     fill="#4FADDF"
     stroke="#0000FF"
     stroke-width="12.8"
     id="path1"
     style="stroke:#ffffff;stroke-opacity:1" />
  <g
     filter="url(#filter0_d_3519_188)"
     id="g3">
    <path
       fill-rule="evenodd"
       clip-rule="evenodd"
       d="m 36.8246,111.36 c 3.3715,0 6.1046,-2.741 6.1046,-6.122 L 48.45906,43.677403 103.975,39.1234 c 3.36071,-0.275681 6.105,-2.7408 6.105,-6.1218 0,-3.3809 -2.733,-6.1217 -6.105,-6.1217 H 36.8246 c -3.3715,0 -6.1046,2.7408 -6.1046,6.1217 v 72.2364 c 0,3.381 2.7331,6.122 6.1046,6.122 z"
       fill="#00ff00"
       id="path2"
       sodipodi:nodetypes="sscsssssss"
       style="fill:#000000;fill-opacity:1" />
    <path
       d="M36.8246 117.76C43.7476 117.76 49.3292 112.137 49.3292 105.238V45.5234H103.975C110.898 45.5234 116.48 39.9003 116.48 33.0016C116.48 26.103 110.898 20.4799 103.975 20.4799H36.8246C29.9016 20.4799 24.32 26.103 24.32 33.0016V105.238C24.32 112.137 29.9016 117.76 36.8246 117.76Z"
       stroke="#0000FF"
       stroke-width="12.8"
       stroke-linecap="round"
       stroke-linejoin="round"
       id="path3"
       style="stroke:#ffffff;stroke-opacity:1" />
  </g>
  <defs
     id="defs5">
    <filter
       id="filter0_d_3519_188"
       x="11.5199"
       y="12.7998"
       width="117.76"
       height="122.88"
       filterUnits="userSpaceOnUse"
       color-interpolation-filters="sRGB">
      <feFlood
         flood-opacity="0"
         result="BackgroundImageFix"
         id="feFlood3" />
      <feColorMatrix
         in="SourceAlpha"
         type="matrix"
         values="0 0 0 0 0 0 0 0 0 0 0 0 0 0 0 0 0 0 127 0"
         result="hardAlpha"
         id="feColorMatrix3" />
      <feOffset
         dy="5.12"
         id="feOffset3" />
      <feGaussianBlur
         stdDeviation="3.2"
         id="feGaussianBlur3" />
      <feColorMatrix
         type="matrix"
         values="0 0 0 0 0 0 0 0 0 0 0 0 0 0 0 0 0 0 0.5 0"
         id="feColorMatrix4" />
      <feBlend
         mode="normal"
         in2="BackgroundImageFix"
         result="effect1_dropShadow_3519_188"
         id="feBlend4" />
      <feBlend
         mode="normal"
         in="SourceGraphic"
         in2="effect1_dropShadow_3519_188"
         result="shape"
         id="feBlend5" />
    </filter>
  </defs>
</svg>
